<svg width="44" height="44" viewBox="0 0 44 44" fill="none" xmlns="http://www.w3.org/2000/svg">
<path d="M27.1764 18.3333H16.8235V28.1111H27.1764V18.3333Z" stroke="white" stroke-width="2"/>
<path d="M36.9185 42.9733C35.8418 42.9733 34.8341 42.7973 33.8955 42.4453C32.9568 42.0803 32.1355 41.5784 31.4315 40.9396C30.7413 40.3007 30.196 39.5576 29.7957 38.7102C29.4092 37.8498 29.2159 36.9242 29.2159 35.9333C29.2159 34.9295 29.4092 34.0038 29.7957 33.1564C30.196 32.296 30.7482 31.5464 31.4522 30.9076C32.1562 30.2687 32.9706 29.7733 33.8955 29.4213C34.8341 29.0563 35.8418 28.8738 36.9185 28.8738C37.7192 28.8738 38.4922 28.978 39.2376 29.1867C39.983 29.3953 40.6732 29.6886 41.3082 30.0667C41.9569 30.4447 42.5091 30.9011 42.9646 31.4356L40.9355 33.3324C40.411 32.7197 39.8035 32.2569 39.1134 31.944C38.4369 31.6311 37.7054 31.4747 36.9185 31.4747C36.2698 31.4747 35.6623 31.592 35.0964 31.8267C34.5305 32.0483 34.0404 32.3611 33.6263 32.7653C33.2122 33.1564 32.8877 33.6258 32.6531 34.1733C32.4185 34.7078 32.3011 35.2945 32.3011 35.9333C32.3011 36.5591 32.4185 37.1458 32.6531 37.6933C32.8877 38.2278 33.219 38.6971 33.647 39.1013C34.075 39.4924 34.5719 39.7989 35.1378 40.0204C35.7176 40.242 36.3456 40.3529 37.0221 40.3529C37.7813 40.3529 38.4922 40.2029 39.1548 39.9031C39.8174 39.6033 40.404 39.1731 40.9148 38.6124L42.8818 40.4507C42.4263 40.9722 41.8811 41.422 41.2461 41.8C40.611 42.178 39.9209 42.4714 39.1755 42.68C38.4439 42.8756 37.6915 42.9733 36.9185 42.9733Z" fill="white"/>
<path d="M6.21182 19.7511C4.7624 19.7511 3.53386 19.4056 2.52617 18.7147C1.51848 18.0237 0.793776 17.0329 0.352051 15.7422L3.12664 14.7449C3.43033 15.5793 3.83064 16.192 4.32758 16.5831C4.83833 16.9742 5.4664 17.1698 6.21182 17.1698C7.10907 17.1698 7.82688 16.896 8.36523 16.3484C8.91739 15.8009 9.19346 15.0709 9.19346 14.1582V5.86667H12.1958V14.2364C12.1958 15.3446 11.9473 16.3158 11.4504 17.1502C10.9535 17.9716 10.2564 18.6104 9.35911 19.0667C8.46186 19.5229 7.41276 19.7511 6.21182 19.7511Z" fill="white"/>
</svg>
