<svg xmlns="http://www.w3.org/2000/svg" width="44" height="44" fill="none" viewBox="0 0 44 44"><path stroke="#fff" stroke-width="2" d="M27.176 18.333H16.824v9.778h10.352z"/><path fill="#fff" d="M36.919 42.973a8.5 8.5 0 0 1-3.023-.528 7.9 7.9 0 0 1-2.465-1.505 7.2 7.2 0 0 1-1.635-2.23 6.7 6.7 0 0 1-.58-2.777q0-1.506.58-2.777.6-1.29 1.656-2.248a7.6 7.6 0 0 1 2.443-1.487 8.3 8.3 0 0 1 3.023-.547q1.201 0 2.32.313a8.5 8.5 0 0 1 2.07.88 6.4 6.4 0 0 1 1.657 1.369l-2.03 1.896a5.2 5.2 0 0 0-1.822-1.388 5.2 5.2 0 0 0-2.194-.47q-.974 0-1.823.353a4.35 4.35 0 0 0-1.47.938q-.62.586-.973 1.408a4.3 4.3 0 0 0-.352 1.76q0 .94.352 1.76a4.3 4.3 0 0 0 .994 1.408q.642.587 1.49.92.87.332 1.885.332 1.14 0 2.133-.45t1.76-1.29l1.967 1.838q-.683.782-1.636 1.349a8.5 8.5 0 0 1-2.07.88 8.7 8.7 0 0 1-2.258.293M6.212 19.751q-2.174 0-3.686-1.036-1.511-1.037-2.174-2.973l2.775-.997q.455 1.251 1.2 1.838.767.587 1.885.587 1.346 0 2.153-.822.828-.82.828-2.19V5.867h3.003v8.37q0 1.662-.746 2.913-.745 1.232-2.09 1.917-1.347.684-3.148.684"/></svg>